<mxfile host="app.diagrams.net" modified="2023-09-15T00:37:19.628Z" agent="Mozilla/5.0 (Windows NT 10.0; Win64; x64) AppleWebKit/537.36 (KHTML, like Gecko) Chrome/116.0.0.0 Safari/537.36" etag="taGNjrBsQjrohRyDbQ3j" version="21.7.4" type="github">
  <diagram id="R2lEEEUBdFMjLlhIrx00" name="Page-1">
    <mxGraphModel dx="1747" dy="1253" grid="1" gridSize="10" guides="1" tooltips="1" connect="1" arrows="1" fold="1" page="1" pageScale="1" pageWidth="1700" pageHeight="1100" math="0" shadow="0" extFonts="Permanent Marker^https://fonts.googleapis.com/css?family=Permanent+Marker">
      <root>
        <mxCell id="0" />
        <mxCell id="1" parent="0" />
        <mxCell id="HzuES46PHGPT3fyTjoQ7-1" value="&lt;font style=&quot;font-size: 12px;&quot;&gt;User&lt;/font&gt;" style="rounded=0;whiteSpace=wrap;html=1;" parent="1" vertex="1">
          <mxGeometry x="655" y="165" width="90" height="40" as="geometry" />
        </mxCell>
        <mxCell id="HzuES46PHGPT3fyTjoQ7-4" value="" style="endArrow=none;html=1;rounded=0;entryX=0.5;entryY=0;entryDx=0;entryDy=0;exitX=0.072;exitY=0.717;exitDx=0;exitDy=0;exitPerimeter=0;" parent="1" source="HzuES46PHGPT3fyTjoQ7-5" target="HzuES46PHGPT3fyTjoQ7-1" edge="1">
          <mxGeometry width="50" height="50" relative="1" as="geometry">
            <mxPoint x="910" y="110" as="sourcePoint" />
            <mxPoint x="710" y="260" as="targetPoint" />
          </mxGeometry>
        </mxCell>
        <mxCell id="HzuES46PHGPT3fyTjoQ7-5" value="&lt;font style=&quot;font-size: 12px;&quot;&gt;Name&lt;/font&gt;" style="ellipse;whiteSpace=wrap;html=1;" parent="1" vertex="1">
          <mxGeometry x="900" y="50" width="90" height="60" as="geometry" />
        </mxCell>
        <mxCell id="HzuES46PHGPT3fyTjoQ7-6" value="&lt;font style=&quot;font-size: 12px;&quot;&gt;First Name&lt;/font&gt;" style="ellipse;whiteSpace=wrap;html=1;" parent="1" vertex="1">
          <mxGeometry x="1020" y="10" width="90" height="60" as="geometry" />
        </mxCell>
        <mxCell id="HzuES46PHGPT3fyTjoQ7-7" value="&lt;font style=&quot;font-size: 12px;&quot;&gt;Last Name&lt;/font&gt;" style="ellipse;whiteSpace=wrap;html=1;" parent="1" vertex="1">
          <mxGeometry x="1020" y="110" width="90" height="60" as="geometry" />
        </mxCell>
        <mxCell id="HzuES46PHGPT3fyTjoQ7-10" value="" style="endArrow=none;html=1;rounded=0;entryX=0.014;entryY=0.586;entryDx=0;entryDy=0;entryPerimeter=0;exitX=0.962;exitY=0.263;exitDx=0;exitDy=0;exitPerimeter=0;" parent="1" source="HzuES46PHGPT3fyTjoQ7-5" target="HzuES46PHGPT3fyTjoQ7-6" edge="1">
          <mxGeometry width="50" height="50" relative="1" as="geometry">
            <mxPoint x="770" y="180" as="sourcePoint" />
            <mxPoint x="820" y="130" as="targetPoint" />
          </mxGeometry>
        </mxCell>
        <mxCell id="HzuES46PHGPT3fyTjoQ7-11" value="" style="endArrow=none;html=1;rounded=0;exitX=0.897;exitY=0.841;exitDx=0;exitDy=0;exitPerimeter=0;" parent="1" source="HzuES46PHGPT3fyTjoQ7-5" target="HzuES46PHGPT3fyTjoQ7-7" edge="1">
          <mxGeometry width="50" height="50" relative="1" as="geometry">
            <mxPoint x="997" y="76" as="sourcePoint" />
            <mxPoint x="1031" y="55" as="targetPoint" />
          </mxGeometry>
        </mxCell>
        <mxCell id="HzuES46PHGPT3fyTjoQ7-13" value="" style="endArrow=none;html=1;rounded=0;exitX=0.5;exitY=0;exitDx=0;exitDy=0;" parent="1" source="HzuES46PHGPT3fyTjoQ7-1" target="v-jlXUlKIIyLzTd_wpWI-10" edge="1">
          <mxGeometry width="50" height="50" relative="1" as="geometry">
            <mxPoint x="630.5" y="45" as="sourcePoint" />
            <mxPoint x="709.2853685197347" y="114.79789417294523" as="targetPoint" />
            <Array as="points">
              <mxPoint x="710" y="140" />
            </Array>
          </mxGeometry>
        </mxCell>
        <mxCell id="HzuES46PHGPT3fyTjoQ7-14" value="&lt;font style=&quot;font-size: 12px;&quot;&gt;Password&lt;/font&gt;" style="ellipse;whiteSpace=wrap;html=1;" parent="1" vertex="1">
          <mxGeometry x="890" y="200" width="90" height="60" as="geometry" />
        </mxCell>
        <mxCell id="HzuES46PHGPT3fyTjoQ7-15" value="" style="endArrow=none;html=1;rounded=0;exitX=1;exitY=0.5;exitDx=0;exitDy=0;" parent="1" source="HzuES46PHGPT3fyTjoQ7-1" target="HzuES46PHGPT3fyTjoQ7-14" edge="1">
          <mxGeometry width="50" height="50" relative="1" as="geometry">
            <mxPoint x="740" y="220" as="sourcePoint" />
            <mxPoint x="790" y="175" as="targetPoint" />
          </mxGeometry>
        </mxCell>
        <mxCell id="HzuES46PHGPT3fyTjoQ7-22" value="&lt;font style=&quot;font-size: 12px;&quot;&gt;Salepeople&lt;/font&gt;" style="rounded=0;whiteSpace=wrap;html=1;" parent="1" vertex="1">
          <mxGeometry x="620" y="350" width="90" height="40" as="geometry" />
        </mxCell>
        <mxCell id="HzuES46PHGPT3fyTjoQ7-23" value="Inventory clerk" style="whiteSpace=wrap;html=1;align=center;" parent="1" vertex="1">
          <mxGeometry x="460" y="350" width="100" height="40" as="geometry" />
        </mxCell>
        <mxCell id="HzuES46PHGPT3fyTjoQ7-30" value="U" style="text;html=1;align=center;verticalAlign=middle;resizable=0;points=[];autosize=1;strokeColor=none;fillColor=none;rotation=60;" parent="1" vertex="1">
          <mxGeometry x="620" y="270" width="30" height="30" as="geometry" />
        </mxCell>
        <mxCell id="HzuES46PHGPT3fyTjoQ7-34" value="&lt;font style=&quot;font-size: 12px;&quot;&gt;Owner&lt;/font&gt;" style="rounded=0;whiteSpace=wrap;html=1;" parent="1" vertex="1">
          <mxGeometry x="940" y="350" width="90" height="40" as="geometry" />
        </mxCell>
        <mxCell id="HzuES46PHGPT3fyTjoQ7-35" value="Manager" style="whiteSpace=wrap;html=1;align=center;" parent="1" vertex="1">
          <mxGeometry x="773" y="350" width="100" height="40" as="geometry" />
        </mxCell>
        <mxCell id="HzuES46PHGPT3fyTjoQ7-36" value="U" style="text;html=1;align=center;verticalAlign=middle;resizable=0;points=[];autosize=1;strokeColor=none;fillColor=none;rotation=-45;" parent="1" vertex="1">
          <mxGeometry x="727" y="282" width="30" height="30" as="geometry" />
        </mxCell>
        <mxCell id="HzuES46PHGPT3fyTjoQ7-40" value="U" style="text;html=1;align=center;verticalAlign=middle;resizable=0;points=[];autosize=1;strokeColor=none;fillColor=none;rotation=30;" parent="1" vertex="1">
          <mxGeometry x="662" y="282" width="30" height="30" as="geometry" />
        </mxCell>
        <mxCell id="HzuES46PHGPT3fyTjoQ7-41" value="U" style="text;html=1;align=center;verticalAlign=middle;resizable=0;points=[];autosize=1;strokeColor=none;fillColor=none;rotation=-75;" parent="1" vertex="1">
          <mxGeometry x="795" y="280" width="30" height="30" as="geometry" />
        </mxCell>
        <mxCell id="HzuES46PHGPT3fyTjoQ7-46" value="&lt;font style=&quot;font-size: 12px;&quot;&gt;Vehicle&lt;/font&gt;" style="rounded=0;whiteSpace=wrap;html=1;" parent="1" vertex="1">
          <mxGeometry x="330" y="610" width="90" height="40" as="geometry" />
        </mxCell>
        <mxCell id="HzuES46PHGPT3fyTjoQ7-47" value="" style="endArrow=none;html=1;rounded=0;entryX=0.5;entryY=0;entryDx=0;entryDy=0;exitX=0.5;exitY=1;exitDx=0;exitDy=0;" parent="1" source="HzuES46PHGPT3fyTjoQ7-48" target="HzuES46PHGPT3fyTjoQ7-46" edge="1">
          <mxGeometry width="50" height="50" relative="1" as="geometry">
            <mxPoint x="440" y="560" as="sourcePoint" />
            <mxPoint x="240" y="710" as="targetPoint" />
          </mxGeometry>
        </mxCell>
        <mxCell id="HzuES46PHGPT3fyTjoQ7-48" value="&lt;font style=&quot;font-size: 12px;&quot;&gt;Model&lt;/font&gt;" style="ellipse;whiteSpace=wrap;html=1;" parent="1" vertex="1">
          <mxGeometry x="130" y="360" width="90" height="60" as="geometry" />
        </mxCell>
        <mxCell id="HzuES46PHGPT3fyTjoQ7-49" value="Year" style="ellipse;whiteSpace=wrap;html=1;" parent="1" vertex="1">
          <mxGeometry y="220" width="90" height="60" as="geometry" />
        </mxCell>
        <mxCell id="HzuES46PHGPT3fyTjoQ7-50" value="Name" style="ellipse;whiteSpace=wrap;html=1;" parent="1" vertex="1">
          <mxGeometry x="130" y="210" width="90" height="60" as="geometry" />
        </mxCell>
        <mxCell id="HzuES46PHGPT3fyTjoQ7-51" value="" style="endArrow=none;html=1;rounded=0;entryX=0.5;entryY=1;entryDx=0;entryDy=0;" parent="1" source="HzuES46PHGPT3fyTjoQ7-48" target="HzuES46PHGPT3fyTjoQ7-49" edge="1">
          <mxGeometry width="50" height="50" relative="1" as="geometry">
            <mxPoint x="300" y="630" as="sourcePoint" />
            <mxPoint x="350" y="580" as="targetPoint" />
          </mxGeometry>
        </mxCell>
        <mxCell id="HzuES46PHGPT3fyTjoQ7-52" value="" style="endArrow=none;html=1;rounded=0;exitX=0.5;exitY=0;exitDx=0;exitDy=0;" parent="1" source="HzuES46PHGPT3fyTjoQ7-48" target="HzuES46PHGPT3fyTjoQ7-50" edge="1">
          <mxGeometry width="50" height="50" relative="1" as="geometry">
            <mxPoint x="527" y="526" as="sourcePoint" />
            <mxPoint x="561" y="505" as="targetPoint" />
          </mxGeometry>
        </mxCell>
        <mxCell id="HzuES46PHGPT3fyTjoQ7-53" value="&lt;font style=&quot;font-size: 12px;&quot;&gt;&lt;u style=&quot;&quot;&gt;VIN&lt;/u&gt;&lt;/font&gt;" style="ellipse;whiteSpace=wrap;html=1;" parent="1" vertex="1">
          <mxGeometry x="10" y="350" width="90" height="60" as="geometry" />
        </mxCell>
        <mxCell id="HzuES46PHGPT3fyTjoQ7-54" value="" style="endArrow=none;html=1;rounded=0;exitX=0.5;exitY=0;exitDx=0;exitDy=0;" parent="1" source="HzuES46PHGPT3fyTjoQ7-46" target="HzuES46PHGPT3fyTjoQ7-53" edge="1">
          <mxGeometry width="50" height="50" relative="1" as="geometry">
            <mxPoint x="160.5" y="495" as="sourcePoint" />
            <mxPoint x="210.5" y="450" as="targetPoint" />
          </mxGeometry>
        </mxCell>
        <mxCell id="HzuES46PHGPT3fyTjoQ7-55" value="Milleage" style="ellipse;whiteSpace=wrap;html=1;" parent="1" vertex="1">
          <mxGeometry x="150" y="815" width="90" height="60" as="geometry" />
        </mxCell>
        <mxCell id="HzuES46PHGPT3fyTjoQ7-56" value="" style="endArrow=none;html=1;rounded=0;" parent="1" source="HzuES46PHGPT3fyTjoQ7-46" target="HzuES46PHGPT3fyTjoQ7-55" edge="1">
          <mxGeometry width="50" height="50" relative="1" as="geometry">
            <mxPoint x="270" y="670" as="sourcePoint" />
            <mxPoint x="320" y="625" as="targetPoint" />
          </mxGeometry>
        </mxCell>
        <mxCell id="HzuES46PHGPT3fyTjoQ7-94" value="Vehicle type" style="ellipse;shape=doubleEllipse;margin=3;whiteSpace=wrap;html=1;align=center;" parent="1" vertex="1">
          <mxGeometry x="10" y="460" width="100" height="40" as="geometry" />
        </mxCell>
        <mxCell id="HzuES46PHGPT3fyTjoQ7-95" value="" style="endArrow=none;html=1;rounded=0;exitX=0;exitY=0;exitDx=0;exitDy=0;" parent="1" source="HzuES46PHGPT3fyTjoQ7-46" target="HzuES46PHGPT3fyTjoQ7-94" edge="1">
          <mxGeometry width="50" height="50" relative="1" as="geometry">
            <mxPoint x="160" y="560" as="sourcePoint" />
            <mxPoint x="210" y="510" as="targetPoint" />
          </mxGeometry>
        </mxCell>
        <mxCell id="HzuES46PHGPT3fyTjoQ7-96" value="Manufacture" style="ellipse;shape=doubleEllipse;margin=3;whiteSpace=wrap;html=1;align=center;" parent="1" vertex="1">
          <mxGeometry x="10" y="590" width="100" height="40" as="geometry" />
        </mxCell>
        <mxCell id="HzuES46PHGPT3fyTjoQ7-97" value="" style="endArrow=none;html=1;rounded=0;entryX=0;entryY=0.25;entryDx=0;entryDy=0;exitX=1;exitY=0.5;exitDx=0;exitDy=0;" parent="1" source="HzuES46PHGPT3fyTjoQ7-96" target="HzuES46PHGPT3fyTjoQ7-46" edge="1">
          <mxGeometry width="50" height="50" relative="1" as="geometry">
            <mxPoint x="110" y="620" as="sourcePoint" />
            <mxPoint x="160" y="570" as="targetPoint" />
          </mxGeometry>
        </mxCell>
        <mxCell id="HzuES46PHGPT3fyTjoQ7-98" value="Color" style="ellipse;shape=doubleEllipse;margin=3;whiteSpace=wrap;html=1;align=center;" parent="1" vertex="1">
          <mxGeometry x="10" y="690" width="100" height="40" as="geometry" />
        </mxCell>
        <mxCell id="HzuES46PHGPT3fyTjoQ7-99" value="" style="endArrow=none;html=1;rounded=0;exitX=1;exitY=0.5;exitDx=0;exitDy=0;entryX=0;entryY=0.5;entryDx=0;entryDy=0;" parent="1" source="HzuES46PHGPT3fyTjoQ7-98" target="HzuES46PHGPT3fyTjoQ7-46" edge="1">
          <mxGeometry width="50" height="50" relative="1" as="geometry">
            <mxPoint x="120" y="670" as="sourcePoint" />
            <mxPoint x="170" y="620" as="targetPoint" />
          </mxGeometry>
        </mxCell>
        <mxCell id="HzuES46PHGPT3fyTjoQ7-100" value="Fuel type" style="ellipse;shape=doubleEllipse;margin=3;whiteSpace=wrap;html=1;align=center;" parent="1" vertex="1">
          <mxGeometry x="10" y="785" width="100" height="40" as="geometry" />
        </mxCell>
        <mxCell id="HzuES46PHGPT3fyTjoQ7-101" value="" style="endArrow=none;html=1;rounded=0;exitX=0.95;exitY=0.1;exitDx=0;exitDy=0;exitPerimeter=0;entryX=0;entryY=1;entryDx=0;entryDy=0;" parent="1" source="HzuES46PHGPT3fyTjoQ7-100" target="HzuES46PHGPT3fyTjoQ7-46" edge="1">
          <mxGeometry width="50" height="50" relative="1" as="geometry">
            <mxPoint x="120" y="670" as="sourcePoint" />
            <mxPoint x="170" y="620" as="targetPoint" />
          </mxGeometry>
        </mxCell>
        <mxCell id="HzuES46PHGPT3fyTjoQ7-103" value="Pending" style="shape=rhombus;perimeter=rhombusPerimeter;whiteSpace=wrap;html=1;align=center;" parent="1" vertex="1">
          <mxGeometry x="260" y="300" width="120" height="60" as="geometry" />
        </mxCell>
        <mxCell id="HzuES46PHGPT3fyTjoQ7-104" value="" style="endArrow=none;html=1;rounded=0;exitX=0.5;exitY=0;exitDx=0;exitDy=0;" parent="1" source="HzuES46PHGPT3fyTjoQ7-46" edge="1">
          <mxGeometry width="50" height="50" relative="1" as="geometry">
            <mxPoint x="300" y="670" as="sourcePoint" />
            <mxPoint x="320" y="360" as="targetPoint" />
          </mxGeometry>
        </mxCell>
        <mxCell id="HzuES46PHGPT3fyTjoQ7-110" value="Determine value/Track vehicle status" style="shape=rhombus;perimeter=rhombusPerimeter;whiteSpace=wrap;html=1;align=center;" parent="1" vertex="1">
          <mxGeometry x="400" y="500" width="120" height="60" as="geometry" />
        </mxCell>
        <mxCell id="HzuES46PHGPT3fyTjoQ7-111" value="" style="endArrow=none;html=1;rounded=0;exitX=0.5;exitY=0;exitDx=0;exitDy=0;" parent="1" source="HzuES46PHGPT3fyTjoQ7-110" target="HzuES46PHGPT3fyTjoQ7-23" edge="1">
          <mxGeometry width="50" height="50" relative="1" as="geometry">
            <mxPoint x="420" y="670" as="sourcePoint" />
            <mxPoint x="470" y="620" as="targetPoint" />
          </mxGeometry>
        </mxCell>
        <mxCell id="HzuES46PHGPT3fyTjoQ7-112" value="" style="endArrow=none;html=1;rounded=0;entryX=0.5;entryY=1;entryDx=0;entryDy=0;exitX=0.75;exitY=0;exitDx=0;exitDy=0;" parent="1" source="HzuES46PHGPT3fyTjoQ7-46" target="HzuES46PHGPT3fyTjoQ7-110" edge="1">
          <mxGeometry width="50" height="50" relative="1" as="geometry">
            <mxPoint x="420" y="670" as="sourcePoint" />
            <mxPoint x="470" y="620" as="targetPoint" />
          </mxGeometry>
        </mxCell>
        <mxCell id="HzuES46PHGPT3fyTjoQ7-113" value="Order/Track" style="shape=rhombus;perimeter=rhombusPerimeter;whiteSpace=wrap;html=1;align=center;" parent="1" vertex="1">
          <mxGeometry x="410" y="210" width="120" height="60" as="geometry" />
        </mxCell>
        <mxCell id="HzuES46PHGPT3fyTjoQ7-114" value="" style="endArrow=none;html=1;rounded=0;entryX=0.35;entryY=0.013;entryDx=0;entryDy=0;exitX=1;exitY=1;exitDx=0;exitDy=0;entryPerimeter=0;" parent="1" source="HzuES46PHGPT3fyTjoQ7-113" target="HzuES46PHGPT3fyTjoQ7-23" edge="1">
          <mxGeometry width="50" height="50" relative="1" as="geometry">
            <mxPoint x="420" y="670" as="sourcePoint" />
            <mxPoint x="470" y="620" as="targetPoint" />
          </mxGeometry>
        </mxCell>
        <mxCell id="HzuES46PHGPT3fyTjoQ7-116" value="1" style="text;html=1;align=center;verticalAlign=middle;resizable=0;points=[];autosize=1;strokeColor=none;fillColor=none;" parent="1" vertex="1">
          <mxGeometry x="490" y="390" width="30" height="30" as="geometry" />
        </mxCell>
        <mxCell id="HzuES46PHGPT3fyTjoQ7-118" value="Part" style="whiteSpace=wrap;html=1;align=center;" parent="1" vertex="1">
          <mxGeometry x="300" y="130" width="100" height="40" as="geometry" />
        </mxCell>
        <mxCell id="HzuES46PHGPT3fyTjoQ7-119" value="N" style="text;html=1;align=center;verticalAlign=middle;resizable=0;points=[];autosize=1;strokeColor=none;fillColor=none;" parent="1" vertex="1">
          <mxGeometry x="395" y="580" width="30" height="30" as="geometry" />
        </mxCell>
        <mxCell id="HzuES46PHGPT3fyTjoQ7-120" value="" style="endArrow=none;html=1;rounded=0;exitX=0.5;exitY=0;exitDx=0;exitDy=0;entryX=0.12;entryY=0.986;entryDx=0;entryDy=0;entryPerimeter=0;" parent="1" source="HzuES46PHGPT3fyTjoQ7-103" target="HzuES46PHGPT3fyTjoQ7-118" edge="1">
          <mxGeometry width="50" height="50" relative="1" as="geometry">
            <mxPoint x="380" y="660" as="sourcePoint" />
            <mxPoint x="430" y="610" as="targetPoint" />
          </mxGeometry>
        </mxCell>
        <mxCell id="HzuES46PHGPT3fyTjoQ7-121" value="Order #" style="ellipse;whiteSpace=wrap;html=1;align=center;fontStyle=4;" parent="1" vertex="1">
          <mxGeometry x="110" y="70" width="100" height="40" as="geometry" />
        </mxCell>
        <mxCell id="HzuES46PHGPT3fyTjoQ7-122" value="" style="endArrow=none;html=1;rounded=0;exitX=0.815;exitY=0.838;exitDx=0;exitDy=0;exitPerimeter=0;" parent="1" source="HzuES46PHGPT3fyTjoQ7-121" edge="1">
          <mxGeometry width="50" height="50" relative="1" as="geometry">
            <mxPoint x="380" y="730" as="sourcePoint" />
            <mxPoint x="300" y="150" as="targetPoint" />
          </mxGeometry>
        </mxCell>
        <mxCell id="HzuES46PHGPT3fyTjoQ7-123" value="" style="endArrow=none;html=1;rounded=0;exitX=1;exitY=1;exitDx=0;exitDy=0;" parent="1" source="HzuES46PHGPT3fyTjoQ7-118" target="HzuES46PHGPT3fyTjoQ7-113" edge="1">
          <mxGeometry width="50" height="50" relative="1" as="geometry">
            <mxPoint x="380" y="590" as="sourcePoint" />
            <mxPoint x="430" y="540" as="targetPoint" />
          </mxGeometry>
        </mxCell>
        <mxCell id="HzuES46PHGPT3fyTjoQ7-124" value="1" style="text;html=1;align=center;verticalAlign=middle;resizable=0;points=[];autosize=1;strokeColor=none;fillColor=none;" parent="1" vertex="1">
          <mxGeometry x="490" y="320" width="30" height="30" as="geometry" />
        </mxCell>
        <mxCell id="HzuES46PHGPT3fyTjoQ7-126" value="Vendor" style="ellipse;whiteSpace=wrap;html=1;align=center;" parent="1" vertex="1">
          <mxGeometry x="325" y="50" width="100" height="40" as="geometry" />
        </mxCell>
        <mxCell id="HzuES46PHGPT3fyTjoQ7-131" value="" style="endArrow=none;html=1;rounded=0;entryX=0.282;entryY=0.927;entryDx=0;entryDy=0;entryPerimeter=0;exitX=0.394;exitY=-0.031;exitDx=0;exitDy=0;exitPerimeter=0;" parent="1" source="HzuES46PHGPT3fyTjoQ7-118" target="HzuES46PHGPT3fyTjoQ7-126" edge="1">
          <mxGeometry width="50" height="50" relative="1" as="geometry">
            <mxPoint x="370" y="900" as="sourcePoint" />
            <mxPoint x="420" y="850" as="targetPoint" />
          </mxGeometry>
        </mxCell>
        <mxCell id="HzuES46PHGPT3fyTjoQ7-132" value="Name" style="ellipse;whiteSpace=wrap;html=1;align=center;" parent="1" vertex="1">
          <mxGeometry x="210" y="10" width="100" height="40" as="geometry" />
        </mxCell>
        <mxCell id="HzuES46PHGPT3fyTjoQ7-133" value="Address" style="ellipse;whiteSpace=wrap;html=1;align=center;" parent="1" vertex="1">
          <mxGeometry x="420" y="10" width="100" height="40" as="geometry" />
        </mxCell>
        <mxCell id="HzuES46PHGPT3fyTjoQ7-134" value="" style="endArrow=none;html=1;rounded=0;entryX=0;entryY=0.5;entryDx=0;entryDy=0;exitX=0.5;exitY=1;exitDx=0;exitDy=0;" parent="1" source="HzuES46PHGPT3fyTjoQ7-132" target="HzuES46PHGPT3fyTjoQ7-126" edge="1">
          <mxGeometry width="50" height="50" relative="1" as="geometry">
            <mxPoint x="350" y="1060" as="sourcePoint" />
            <mxPoint x="400" y="1010" as="targetPoint" />
          </mxGeometry>
        </mxCell>
        <mxCell id="HzuES46PHGPT3fyTjoQ7-135" value="" style="endArrow=none;html=1;rounded=0;entryX=1;entryY=0;entryDx=0;entryDy=0;" parent="1" source="HzuES46PHGPT3fyTjoQ7-133" target="HzuES46PHGPT3fyTjoQ7-126" edge="1">
          <mxGeometry width="50" height="50" relative="1" as="geometry">
            <mxPoint x="380" y="1060" as="sourcePoint" />
            <mxPoint x="430" y="1010" as="targetPoint" />
          </mxGeometry>
        </mxCell>
        <mxCell id="HzuES46PHGPT3fyTjoQ7-136" value="1" style="text;html=1;align=center;verticalAlign=middle;resizable=0;points=[];autosize=1;strokeColor=none;fillColor=none;" parent="1" vertex="1">
          <mxGeometry x="360" y="565" width="30" height="30" as="geometry" />
        </mxCell>
        <mxCell id="HzuES46PHGPT3fyTjoQ7-137" value="N" style="text;html=1;align=center;verticalAlign=middle;resizable=0;points=[];autosize=1;strokeColor=none;fillColor=none;" parent="1" vertex="1">
          <mxGeometry x="280" y="170" width="30" height="30" as="geometry" />
        </mxCell>
        <mxCell id="HzuES46PHGPT3fyTjoQ7-140" value="" style="endArrow=none;html=1;rounded=0;entryX=0.942;entryY=0.992;entryDx=0;entryDy=0;exitX=0.5;exitY=0;exitDx=0;exitDy=0;entryPerimeter=0;" parent="1" source="HzuES46PHGPT3fyTjoQ7-141" target="HzuES46PHGPT3fyTjoQ7-151" edge="1">
          <mxGeometry width="50" height="50" relative="1" as="geometry">
            <mxPoint x="1250" y="660" as="sourcePoint" />
            <mxPoint x="840" y="940" as="targetPoint" />
          </mxGeometry>
        </mxCell>
        <mxCell id="HzuES46PHGPT3fyTjoQ7-141" value="Address" style="ellipse;whiteSpace=wrap;html=1;align=center;" parent="1" vertex="1">
          <mxGeometry x="1480" y="840" width="100" height="40" as="geometry" />
        </mxCell>
        <mxCell id="HzuES46PHGPT3fyTjoQ7-142" value="Phone#" style="ellipse;whiteSpace=wrap;html=1;align=center;" parent="1" vertex="1">
          <mxGeometry x="1480" y="765" width="100" height="40" as="geometry" />
        </mxCell>
        <mxCell id="HzuES46PHGPT3fyTjoQ7-143" value="Email" style="ellipse;whiteSpace=wrap;html=1;align=center;" parent="1" vertex="1">
          <mxGeometry x="1480" y="690" width="100" height="40" as="geometry" />
        </mxCell>
        <mxCell id="HzuES46PHGPT3fyTjoQ7-144" value="" style="endArrow=none;html=1;rounded=0;exitX=0.5;exitY=0;exitDx=0;exitDy=0;entryX=1;entryY=0.5;entryDx=0;entryDy=0;" parent="1" source="HzuES46PHGPT3fyTjoQ7-142" target="HzuES46PHGPT3fyTjoQ7-151" edge="1">
          <mxGeometry width="50" height="50" relative="1" as="geometry">
            <mxPoint x="1350" y="660" as="sourcePoint" />
            <mxPoint x="890" y="940" as="targetPoint" />
          </mxGeometry>
        </mxCell>
        <mxCell id="HzuES46PHGPT3fyTjoQ7-145" value="" style="endArrow=none;html=1;rounded=0;exitX=0.917;exitY=0.013;exitDx=0;exitDy=0;entryX=-0.004;entryY=0.418;entryDx=0;entryDy=0;entryPerimeter=0;exitPerimeter=0;" parent="1" source="HzuES46PHGPT3fyTjoQ7-151" target="HzuES46PHGPT3fyTjoQ7-143" edge="1">
          <mxGeometry width="50" height="50" relative="1" as="geometry">
            <mxPoint x="940" y="940" as="sourcePoint" />
            <mxPoint x="1470" y="600" as="targetPoint" />
          </mxGeometry>
        </mxCell>
        <mxCell id="HzuES46PHGPT3fyTjoQ7-146" value="N" style="text;html=1;align=center;verticalAlign=middle;resizable=0;points=[];autosize=1;strokeColor=none;fillColor=none;" parent="1" vertex="1">
          <mxGeometry x="400" y="140" width="30" height="30" as="geometry" />
        </mxCell>
        <mxCell id="HzuES46PHGPT3fyTjoQ7-149" value="" style="endArrow=none;html=1;rounded=0;" parent="1" target="HzuES46PHGPT3fyTjoQ7-148" edge="1">
          <mxGeometry width="50" height="50" relative="1" as="geometry">
            <mxPoint x="1259.9984865365263" y="720" as="sourcePoint" />
            <mxPoint x="1207.75" y="660" as="targetPoint" />
          </mxGeometry>
        </mxCell>
        <mxCell id="HzuES46PHGPT3fyTjoQ7-148" value="O" style="ellipse;whiteSpace=wrap;html=1;aspect=fixed;" parent="1" vertex="1">
          <mxGeometry x="1190" y="705" width="25" height="25" as="geometry" />
        </mxCell>
        <mxCell id="HzuES46PHGPT3fyTjoQ7-150" value="Buyer" style="rounded=1;arcSize=10;whiteSpace=wrap;html=1;align=center;" parent="1" vertex="1">
          <mxGeometry x="830" y="980" width="100" height="40" as="geometry" />
        </mxCell>
        <mxCell id="HzuES46PHGPT3fyTjoQ7-151" value="Customer" style="whiteSpace=wrap;html=1;align=center;" parent="1" vertex="1">
          <mxGeometry x="1260" y="700" width="100" height="40" as="geometry" />
        </mxCell>
        <mxCell id="HzuES46PHGPT3fyTjoQ7-152" value="Seller" style="rounded=1;arcSize=10;whiteSpace=wrap;html=1;align=center;" parent="1" vertex="1">
          <mxGeometry x="830" y="470" width="100" height="40" as="geometry" />
        </mxCell>
        <mxCell id="HzuES46PHGPT3fyTjoQ7-154" value="Individual" style="rounded=1;arcSize=10;whiteSpace=wrap;html=1;align=center;" parent="1" vertex="1">
          <mxGeometry x="773" y="690" width="100" height="40" as="geometry" />
        </mxCell>
        <mxCell id="HzuES46PHGPT3fyTjoQ7-155" value="Buiness" style="rounded=1;arcSize=10;whiteSpace=wrap;html=1;align=center;" parent="1" vertex="1">
          <mxGeometry x="770" y="777.5" width="100" height="40" as="geometry" />
        </mxCell>
        <mxCell id="HzuES46PHGPT3fyTjoQ7-157" value="U" style="ellipse;whiteSpace=wrap;html=1;aspect=fixed;" parent="1" vertex="1">
          <mxGeometry x="915" y="728.5" width="25" height="25" as="geometry" />
        </mxCell>
        <mxCell id="HzuES46PHGPT3fyTjoQ7-160" value="" style="endArrow=none;html=1;rounded=0;entryX=0.5;entryY=1;entryDx=0;entryDy=0;exitX=0.714;exitY=0.017;exitDx=0;exitDy=0;exitPerimeter=0;" parent="1" source="HzuES46PHGPT3fyTjoQ7-157" target="HzuES46PHGPT3fyTjoQ7-152" edge="1">
          <mxGeometry width="50" height="50" relative="1" as="geometry">
            <mxPoint x="870" y="640" as="sourcePoint" />
            <mxPoint x="920" y="590" as="targetPoint" />
          </mxGeometry>
        </mxCell>
        <mxCell id="HzuES46PHGPT3fyTjoQ7-161" value="" style="endArrow=none;html=1;rounded=0;entryX=0.5;entryY=1;entryDx=0;entryDy=0;exitX=0.41;exitY=0.025;exitDx=0;exitDy=0;exitPerimeter=0;" parent="1" source="HzuES46PHGPT3fyTjoQ7-150" target="HzuES46PHGPT3fyTjoQ7-157" edge="1">
          <mxGeometry width="50" height="50" relative="1" as="geometry">
            <mxPoint x="900" y="790" as="sourcePoint" />
            <mxPoint x="950" y="740" as="targetPoint" />
          </mxGeometry>
        </mxCell>
        <mxCell id="HzuES46PHGPT3fyTjoQ7-162" value="Primary contact" style="ellipse;whiteSpace=wrap;html=1;align=center;" parent="1" vertex="1">
          <mxGeometry x="660" y="870" width="100" height="40" as="geometry" />
        </mxCell>
        <mxCell id="HzuES46PHGPT3fyTjoQ7-163" value="&lt;u&gt;TIN&lt;/u&gt;" style="ellipse;whiteSpace=wrap;html=1;align=center;" parent="1" vertex="1">
          <mxGeometry x="645" y="785" width="100" height="40" as="geometry" />
        </mxCell>
        <mxCell id="HzuES46PHGPT3fyTjoQ7-164" value="Title" style="ellipse;whiteSpace=wrap;html=1;align=center;" parent="1" vertex="1">
          <mxGeometry x="780" y="870" width="100" height="40" as="geometry" />
        </mxCell>
        <mxCell id="HzuES46PHGPT3fyTjoQ7-165" value="" style="endArrow=none;html=1;rounded=0;entryX=0;entryY=0.5;entryDx=0;entryDy=0;exitX=1;exitY=0.5;exitDx=0;exitDy=0;" parent="1" source="HzuES46PHGPT3fyTjoQ7-163" target="HzuES46PHGPT3fyTjoQ7-155" edge="1">
          <mxGeometry width="50" height="50" relative="1" as="geometry">
            <mxPoint x="700" y="780" as="sourcePoint" />
            <mxPoint x="750" y="730" as="targetPoint" />
          </mxGeometry>
        </mxCell>
        <mxCell id="HzuES46PHGPT3fyTjoQ7-166" value="" style="endArrow=none;html=1;rounded=0;entryX=0.16;entryY=0.963;entryDx=0;entryDy=0;entryPerimeter=0;exitX=1;exitY=0;exitDx=0;exitDy=0;" parent="1" source="HzuES46PHGPT3fyTjoQ7-162" target="HzuES46PHGPT3fyTjoQ7-155" edge="1">
          <mxGeometry width="50" height="50" relative="1" as="geometry">
            <mxPoint x="710" y="890" as="sourcePoint" />
            <mxPoint x="760" y="840" as="targetPoint" />
          </mxGeometry>
        </mxCell>
        <mxCell id="HzuES46PHGPT3fyTjoQ7-167" value="" style="endArrow=none;html=1;rounded=0;exitX=0;exitY=0.5;exitDx=0;exitDy=0;entryX=1;entryY=0.5;entryDx=0;entryDy=0;" parent="1" source="HzuES46PHGPT3fyTjoQ7-164" target="HzuES46PHGPT3fyTjoQ7-162" edge="1">
          <mxGeometry width="50" height="50" relative="1" as="geometry">
            <mxPoint x="720" y="980" as="sourcePoint" />
            <mxPoint x="770" y="930" as="targetPoint" />
          </mxGeometry>
        </mxCell>
        <mxCell id="HzuES46PHGPT3fyTjoQ7-169" value="&lt;u&gt;Driver&#39;s license&lt;/u&gt;" style="ellipse;whiteSpace=wrap;html=1;align=center;" parent="1" vertex="1">
          <mxGeometry x="630" y="690" width="100" height="40" as="geometry" />
        </mxCell>
        <mxCell id="HzuES46PHGPT3fyTjoQ7-170" value="" style="endArrow=none;html=1;rounded=0;entryX=0;entryY=0.5;entryDx=0;entryDy=0;exitX=0.98;exitY=0.35;exitDx=0;exitDy=0;exitPerimeter=0;" parent="1" source="HzuES46PHGPT3fyTjoQ7-169" target="HzuES46PHGPT3fyTjoQ7-154" edge="1">
          <mxGeometry width="50" height="50" relative="1" as="geometry">
            <mxPoint x="740" y="690" as="sourcePoint" />
            <mxPoint x="790" y="640" as="targetPoint" />
          </mxGeometry>
        </mxCell>
        <mxCell id="HzuES46PHGPT3fyTjoQ7-171" value="U" style="text;html=1;align=center;verticalAlign=middle;resizable=0;points=[];autosize=1;strokeColor=none;fillColor=none;rotation=120;" parent="1" vertex="1">
          <mxGeometry x="879" y="707" width="30" height="30" as="geometry" />
        </mxCell>
        <mxCell id="HzuES46PHGPT3fyTjoQ7-173" value="U" style="text;html=1;align=center;verticalAlign=middle;resizable=0;points=[];autosize=1;strokeColor=none;fillColor=none;rotation=60;" parent="1" vertex="1">
          <mxGeometry x="879" y="750.5" width="30" height="30" as="geometry" />
        </mxCell>
        <mxCell id="HzuES46PHGPT3fyTjoQ7-174" value="U" style="text;html=1;align=center;verticalAlign=middle;resizable=0;points=[];autosize=1;strokeColor=none;fillColor=none;rotation=46;" parent="1" vertex="1">
          <mxGeometry x="1100" y="787" width="30" height="30" as="geometry" />
        </mxCell>
        <mxCell id="HzuES46PHGPT3fyTjoQ7-175" value="U" style="text;html=1;align=center;verticalAlign=middle;resizable=0;points=[];autosize=1;strokeColor=none;fillColor=none;rotation=130;" parent="1" vertex="1">
          <mxGeometry x="1018" y="566" width="30" height="30" as="geometry" />
        </mxCell>
        <mxCell id="v-jlXUlKIIyLzTd_wpWI-2" style="edgeStyle=orthogonalEdgeStyle;rounded=0;orthogonalLoop=1;jettySize=auto;html=1;exitX=0;exitY=0.5;exitDx=0;exitDy=0;entryX=0.5;entryY=1;entryDx=0;entryDy=0;" edge="1" parent="1" source="v-jlXUlKIIyLzTd_wpWI-21" target="v-jlXUlKIIyLzTd_wpWI-1">
          <mxGeometry relative="1" as="geometry">
            <Array as="points">
              <mxPoint x="1270" y="460" />
            </Array>
          </mxGeometry>
        </mxCell>
        <mxCell id="HzuES46PHGPT3fyTjoQ7-177" value="Purchase" style="shape=rhombus;perimeter=rhombusPerimeter;whiteSpace=wrap;html=1;align=center;" parent="1" vertex="1">
          <mxGeometry x="610" y="505" width="120" height="60" as="geometry" />
        </mxCell>
        <mxCell id="HzuES46PHGPT3fyTjoQ7-178" value="" style="endArrow=none;html=1;rounded=0;exitX=1;exitY=0.5;exitDx=0;exitDy=0;entryX=0;entryY=0.5;entryDx=0;entryDy=0;" parent="1" source="HzuES46PHGPT3fyTjoQ7-177" target="HzuES46PHGPT3fyTjoQ7-152" edge="1">
          <mxGeometry width="50" height="50" relative="1" as="geometry">
            <mxPoint x="800" y="580" as="sourcePoint" />
            <mxPoint x="850" y="530" as="targetPoint" />
          </mxGeometry>
        </mxCell>
        <mxCell id="HzuES46PHGPT3fyTjoQ7-179" value="" style="endArrow=none;html=1;rounded=0;exitX=1;exitY=0.5;exitDx=0;exitDy=0;entryX=0;entryY=0.5;entryDx=0;entryDy=0;" parent="1" source="HzuES46PHGPT3fyTjoQ7-46" target="HzuES46PHGPT3fyTjoQ7-177" edge="1">
          <mxGeometry width="50" height="50" relative="1" as="geometry">
            <mxPoint x="530" y="650" as="sourcePoint" />
            <mxPoint x="580" y="600" as="targetPoint" />
          </mxGeometry>
        </mxCell>
        <mxCell id="HzuES46PHGPT3fyTjoQ7-180" value="Sale" style="shape=rhombus;perimeter=rhombusPerimeter;whiteSpace=wrap;html=1;align=center;" parent="1" vertex="1">
          <mxGeometry x="540" y="970" width="120" height="60" as="geometry" />
        </mxCell>
        <mxCell id="HzuES46PHGPT3fyTjoQ7-181" value="" style="endArrow=none;html=1;rounded=0;entryX=0.75;entryY=1;entryDx=0;entryDy=0;exitX=0;exitY=0;exitDx=0;exitDy=0;" parent="1" source="HzuES46PHGPT3fyTjoQ7-180" target="HzuES46PHGPT3fyTjoQ7-46" edge="1">
          <mxGeometry width="50" height="50" relative="1" as="geometry">
            <mxPoint x="490" y="920" as="sourcePoint" />
            <mxPoint x="540" y="870" as="targetPoint" />
          </mxGeometry>
        </mxCell>
        <mxCell id="HzuES46PHGPT3fyTjoQ7-182" value="" style="endArrow=none;html=1;rounded=0;entryX=0;entryY=0.5;entryDx=0;entryDy=0;exitX=1;exitY=0.5;exitDx=0;exitDy=0;" parent="1" source="HzuES46PHGPT3fyTjoQ7-180" target="HzuES46PHGPT3fyTjoQ7-150" edge="1">
          <mxGeometry width="50" height="50" relative="1" as="geometry">
            <mxPoint x="730" y="1040" as="sourcePoint" />
            <mxPoint x="780" y="990" as="targetPoint" />
          </mxGeometry>
        </mxCell>
        <mxCell id="HzuES46PHGPT3fyTjoQ7-183" value="N" style="text;html=1;align=center;verticalAlign=middle;resizable=0;points=[];autosize=1;strokeColor=none;fillColor=none;" parent="1" vertex="1">
          <mxGeometry x="410" y="660" width="30" height="30" as="geometry" />
        </mxCell>
        <mxCell id="HzuES46PHGPT3fyTjoQ7-184" value="N" style="text;html=1;align=center;verticalAlign=middle;resizable=0;points=[];autosize=1;strokeColor=none;fillColor=none;" parent="1" vertex="1">
          <mxGeometry x="430" y="610" width="30" height="30" as="geometry" />
        </mxCell>
        <mxCell id="HzuES46PHGPT3fyTjoQ7-185" value="1" style="text;html=1;align=center;verticalAlign=middle;resizable=0;points=[];autosize=1;strokeColor=none;fillColor=none;" parent="1" vertex="1">
          <mxGeometry x="795" y="968" width="30" height="30" as="geometry" />
        </mxCell>
        <mxCell id="HzuES46PHGPT3fyTjoQ7-186" value="1" style="text;html=1;align=center;verticalAlign=middle;resizable=0;points=[];autosize=1;strokeColor=none;fillColor=none;" parent="1" vertex="1">
          <mxGeometry x="785" y="468" width="30" height="30" as="geometry" />
        </mxCell>
        <mxCell id="HzuES46PHGPT3fyTjoQ7-187" value="" style="endArrow=classic;html=1;rounded=0;entryX=0;entryY=1;entryDx=0;entryDy=0;exitX=1;exitY=0;exitDx=0;exitDy=0;" parent="1" source="HzuES46PHGPT3fyTjoQ7-150" target="HzuES46PHGPT3fyTjoQ7-148" edge="1">
          <mxGeometry width="50" height="50" relative="1" as="geometry">
            <mxPoint x="670" y="520" as="sourcePoint" />
            <mxPoint x="720" y="470" as="targetPoint" />
          </mxGeometry>
        </mxCell>
        <mxCell id="HzuES46PHGPT3fyTjoQ7-188" value="" style="endArrow=classic;html=1;rounded=0;entryX=0;entryY=0;entryDx=0;entryDy=0;exitX=1;exitY=0.75;exitDx=0;exitDy=0;" parent="1" source="HzuES46PHGPT3fyTjoQ7-152" target="HzuES46PHGPT3fyTjoQ7-148" edge="1">
          <mxGeometry width="50" height="50" relative="1" as="geometry">
            <mxPoint x="840" y="670" as="sourcePoint" />
            <mxPoint x="890" y="620" as="targetPoint" />
          </mxGeometry>
        </mxCell>
        <mxCell id="HzuES46PHGPT3fyTjoQ7-189" value="" style="endArrow=classic;html=1;rounded=0;entryX=0.049;entryY=0.245;entryDx=0;entryDy=0;entryPerimeter=0;exitX=1;exitY=0.5;exitDx=0;exitDy=0;" parent="1" source="HzuES46PHGPT3fyTjoQ7-154" target="HzuES46PHGPT3fyTjoQ7-157" edge="1">
          <mxGeometry width="50" height="50" relative="1" as="geometry">
            <mxPoint x="870" y="760" as="sourcePoint" />
            <mxPoint x="920" y="710" as="targetPoint" />
          </mxGeometry>
        </mxCell>
        <mxCell id="HzuES46PHGPT3fyTjoQ7-190" value="" style="endArrow=classic;html=1;rounded=0;entryX=0;entryY=1;entryDx=0;entryDy=0;" parent="1" target="HzuES46PHGPT3fyTjoQ7-157" edge="1">
          <mxGeometry width="50" height="50" relative="1" as="geometry">
            <mxPoint x="870" y="780" as="sourcePoint" />
            <mxPoint x="930" y="760" as="targetPoint" />
          </mxGeometry>
        </mxCell>
        <mxCell id="HzuES46PHGPT3fyTjoQ7-191" value="" style="endArrow=classic;html=1;rounded=0;exitX=0.75;exitY=0;exitDx=0;exitDy=0;entryX=0.02;entryY=0.717;entryDx=0;entryDy=0;entryPerimeter=0;" parent="1" source="HzuES46PHGPT3fyTjoQ7-23" target="HzuES46PHGPT3fyTjoQ7-193" edge="1">
          <mxGeometry width="50" height="50" relative="1" as="geometry">
            <mxPoint x="620" y="340" as="sourcePoint" />
            <mxPoint x="670" y="290" as="targetPoint" />
          </mxGeometry>
        </mxCell>
        <mxCell id="HzuES46PHGPT3fyTjoQ7-193" value="d" style="ellipse;whiteSpace=wrap;html=1;aspect=fixed;" parent="1" vertex="1">
          <mxGeometry x="685" y="235" width="25" height="25" as="geometry" />
        </mxCell>
        <mxCell id="HzuES46PHGPT3fyTjoQ7-195" value="" style="endArrow=none;html=1;rounded=0;entryX=0.5;entryY=1;entryDx=0;entryDy=0;exitX=0.5;exitY=0;exitDx=0;exitDy=0;" parent="1" source="HzuES46PHGPT3fyTjoQ7-193" target="HzuES46PHGPT3fyTjoQ7-1" edge="1">
          <mxGeometry width="50" height="50" relative="1" as="geometry">
            <mxPoint x="660" y="250" as="sourcePoint" />
            <mxPoint x="710" y="200" as="targetPoint" />
          </mxGeometry>
        </mxCell>
        <mxCell id="HzuES46PHGPT3fyTjoQ7-196" value="" style="endArrow=classic;html=1;rounded=0;entryX=0.5;entryY=1;entryDx=0;entryDy=0;" parent="1" target="HzuES46PHGPT3fyTjoQ7-193" edge="1">
          <mxGeometry width="50" height="50" relative="1" as="geometry">
            <mxPoint x="650" y="350" as="sourcePoint" />
            <mxPoint x="700" y="300" as="targetPoint" />
          </mxGeometry>
        </mxCell>
        <mxCell id="HzuES46PHGPT3fyTjoQ7-197" value="" style="endArrow=classic;html=1;rounded=0;entryX=1;entryY=1;entryDx=0;entryDy=0;" parent="1" target="HzuES46PHGPT3fyTjoQ7-193" edge="1">
          <mxGeometry width="50" height="50" relative="1" as="geometry">
            <mxPoint x="790" y="350" as="sourcePoint" />
            <mxPoint x="840" y="300" as="targetPoint" />
          </mxGeometry>
        </mxCell>
        <mxCell id="HzuES46PHGPT3fyTjoQ7-201" value="" style="endArrow=classic;html=1;rounded=0;entryX=1;entryY=0.5;entryDx=0;entryDy=0;exitX=-0.033;exitY=0.065;exitDx=0;exitDy=0;exitPerimeter=0;" parent="1" source="HzuES46PHGPT3fyTjoQ7-34" target="HzuES46PHGPT3fyTjoQ7-193" edge="1">
          <mxGeometry width="50" height="50" relative="1" as="geometry">
            <mxPoint x="740" y="340" as="sourcePoint" />
            <mxPoint x="790" y="290" as="targetPoint" />
          </mxGeometry>
        </mxCell>
        <mxCell id="v-jlXUlKIIyLzTd_wpWI-1" value="Date" style="ellipse;whiteSpace=wrap;html=1;align=center;" vertex="1" parent="1">
          <mxGeometry x="1480" y="445" width="100" height="50" as="geometry" />
        </mxCell>
        <mxCell id="v-jlXUlKIIyLzTd_wpWI-4" style="edgeStyle=orthogonalEdgeStyle;rounded=0;orthogonalLoop=1;jettySize=auto;html=1;exitX=0.5;exitY=1;exitDx=0;exitDy=0;entryX=0;entryY=0;entryDx=0;entryDy=0;" edge="1" parent="1" source="v-jlXUlKIIyLzTd_wpWI-3" target="v-jlXUlKIIyLzTd_wpWI-21">
          <mxGeometry relative="1" as="geometry">
            <Array as="points">
              <mxPoint x="1270" y="410" />
            </Array>
          </mxGeometry>
        </mxCell>
        <mxCell id="v-jlXUlKIIyLzTd_wpWI-3" value="&lt;span style=&quot;border-bottom: 1px dotted&quot;&gt;Puchase ID&lt;/span&gt;" style="ellipse;whiteSpace=wrap;html=1;align=center;" vertex="1" parent="1">
          <mxGeometry x="1520" y="370" width="100" height="40" as="geometry" />
        </mxCell>
        <mxCell id="v-jlXUlKIIyLzTd_wpWI-9" style="edgeStyle=orthogonalEdgeStyle;rounded=0;orthogonalLoop=1;jettySize=auto;html=1;exitX=0;exitY=1;exitDx=0;exitDy=0;entryX=0;entryY=0.5;entryDx=0;entryDy=0;" edge="1" parent="1" source="v-jlXUlKIIyLzTd_wpWI-5" target="v-jlXUlKIIyLzTd_wpWI-21">
          <mxGeometry relative="1" as="geometry">
            <Array as="points">
              <mxPoint x="1295" y="410" />
              <mxPoint x="1270" y="410" />
            </Array>
          </mxGeometry>
        </mxCell>
        <mxCell id="v-jlXUlKIIyLzTd_wpWI-5" value="Price" style="ellipse;whiteSpace=wrap;html=1;align=center;" vertex="1" parent="1">
          <mxGeometry x="1290" y="330" width="100" height="40" as="geometry" />
        </mxCell>
        <mxCell id="v-jlXUlKIIyLzTd_wpWI-8" style="edgeStyle=orthogonalEdgeStyle;rounded=0;orthogonalLoop=1;jettySize=auto;html=1;exitX=0;exitY=0;exitDx=0;exitDy=0;" edge="1" parent="1" source="v-jlXUlKIIyLzTd_wpWI-7">
          <mxGeometry relative="1" as="geometry">
            <mxPoint x="1310" y="490" as="targetPoint" />
            <Array as="points">
              <mxPoint x="1325" y="571" />
              <mxPoint x="1310" y="571" />
            </Array>
          </mxGeometry>
        </mxCell>
        <mxCell id="v-jlXUlKIIyLzTd_wpWI-7" value="Condition" style="ellipse;whiteSpace=wrap;html=1;align=center;" vertex="1" parent="1">
          <mxGeometry x="1310" y="590" width="100" height="40" as="geometry" />
        </mxCell>
        <mxCell id="v-jlXUlKIIyLzTd_wpWI-10" value="&lt;span style=&quot;border-bottom: 1px dotted&quot;&gt;User Name&lt;/span&gt;" style="ellipse;whiteSpace=wrap;html=1;align=center;" vertex="1" parent="1">
          <mxGeometry x="640" y="70" width="100" height="40" as="geometry" />
        </mxCell>
        <mxCell id="v-jlXUlKIIyLzTd_wpWI-15" style="edgeStyle=orthogonalEdgeStyle;rounded=0;orthogonalLoop=1;jettySize=auto;html=1;exitX=1;exitY=1;exitDx=0;exitDy=0;" edge="1" parent="1" source="v-jlXUlKIIyLzTd_wpWI-11" target="v-jlXUlKIIyLzTd_wpWI-19">
          <mxGeometry relative="1" as="geometry">
            <Array as="points">
              <mxPoint x="295" y="1014" />
              <mxPoint x="380" y="1014" />
            </Array>
          </mxGeometry>
        </mxCell>
        <mxCell id="v-jlXUlKIIyLzTd_wpWI-11" value="Date" style="ellipse;whiteSpace=wrap;html=1;align=center;" vertex="1" parent="1">
          <mxGeometry x="210" y="1020" width="100" height="40" as="geometry" />
        </mxCell>
        <mxCell id="v-jlXUlKIIyLzTd_wpWI-14" style="edgeStyle=orthogonalEdgeStyle;rounded=0;orthogonalLoop=1;jettySize=auto;html=1;exitX=1;exitY=1;exitDx=0;exitDy=0;entryX=0.35;entryY=1;entryDx=0;entryDy=0;entryPerimeter=0;" edge="1" parent="1" source="v-jlXUlKIIyLzTd_wpWI-13" target="v-jlXUlKIIyLzTd_wpWI-19">
          <mxGeometry relative="1" as="geometry" />
        </mxCell>
        <mxCell id="v-jlXUlKIIyLzTd_wpWI-13" value="Invoice No." style="ellipse;whiteSpace=wrap;html=1;align=center;fontStyle=4;" vertex="1" parent="1">
          <mxGeometry x="160" y="963" width="100" height="40" as="geometry" />
        </mxCell>
        <mxCell id="v-jlXUlKIIyLzTd_wpWI-17" style="edgeStyle=orthogonalEdgeStyle;rounded=0;orthogonalLoop=1;jettySize=auto;html=1;exitX=1;exitY=0;exitDx=0;exitDy=0;entryX=1;entryY=1;entryDx=0;entryDy=0;" edge="1" parent="1" source="v-jlXUlKIIyLzTd_wpWI-16" target="v-jlXUlKIIyLzTd_wpWI-19">
          <mxGeometry relative="1" as="geometry">
            <Array as="points">
              <mxPoint x="415" y="940" />
              <mxPoint x="395" y="940" />
            </Array>
          </mxGeometry>
        </mxCell>
        <mxCell id="v-jlXUlKIIyLzTd_wpWI-16" value="Sale Price" style="ellipse;whiteSpace=wrap;html=1;align=center;" vertex="1" parent="1">
          <mxGeometry x="330" y="1050" width="100" height="40" as="geometry" />
        </mxCell>
        <mxCell id="v-jlXUlKIIyLzTd_wpWI-20" style="edgeStyle=orthogonalEdgeStyle;rounded=0;orthogonalLoop=1;jettySize=auto;html=1;exitX=1;exitY=0.75;exitDx=0;exitDy=0;" edge="1" parent="1" source="v-jlXUlKIIyLzTd_wpWI-19" target="HzuES46PHGPT3fyTjoQ7-180">
          <mxGeometry relative="1" as="geometry" />
        </mxCell>
        <mxCell id="v-jlXUlKIIyLzTd_wpWI-19" value="Sales Table" style="whiteSpace=wrap;html=1;align=center;" vertex="1" parent="1">
          <mxGeometry x="295" y="880" width="100" height="40" as="geometry" />
        </mxCell>
        <mxCell id="v-jlXUlKIIyLzTd_wpWI-22" style="edgeStyle=orthogonalEdgeStyle;rounded=0;orthogonalLoop=1;jettySize=auto;html=1;exitX=0.25;exitY=1;exitDx=0;exitDy=0;entryX=0.5;entryY=0;entryDx=0;entryDy=0;" edge="1" parent="1" source="v-jlXUlKIIyLzTd_wpWI-21" target="HzuES46PHGPT3fyTjoQ7-177">
          <mxGeometry relative="1" as="geometry">
            <Array as="points">
              <mxPoint x="1295" y="450" />
              <mxPoint x="670" y="450" />
            </Array>
          </mxGeometry>
        </mxCell>
        <mxCell id="v-jlXUlKIIyLzTd_wpWI-21" value="Purchase" style="whiteSpace=wrap;html=1;align=center;" vertex="1" parent="1">
          <mxGeometry x="1270" y="445" width="100" height="40" as="geometry" />
        </mxCell>
        <mxCell id="v-jlXUlKIIyLzTd_wpWI-24" style="edgeStyle=orthogonalEdgeStyle;rounded=0;orthogonalLoop=1;jettySize=auto;html=1;exitX=0.5;exitY=0;exitDx=0;exitDy=0;entryX=0.68;entryY=1;entryDx=0;entryDy=0;entryPerimeter=0;exitPerimeter=0;" edge="1" parent="1" source="v-jlXUlKIIyLzTd_wpWI-27" target="HzuES46PHGPT3fyTjoQ7-151">
          <mxGeometry relative="1" as="geometry">
            <mxPoint x="1330" y="805" as="sourcePoint" />
          </mxGeometry>
        </mxCell>
        <mxCell id="v-jlXUlKIIyLzTd_wpWI-27" value="ID" style="ellipse;whiteSpace=wrap;html=1;align=center;fontStyle=4;" vertex="1" parent="1">
          <mxGeometry x="1280" y="810" width="100" height="40" as="geometry" />
        </mxCell>
        <mxCell id="v-jlXUlKIIyLzTd_wpWI-30" style="edgeStyle=orthogonalEdgeStyle;rounded=0;orthogonalLoop=1;jettySize=auto;html=1;exitX=0;exitY=0.5;exitDx=0;exitDy=0;entryX=0.5;entryY=0;entryDx=0;entryDy=0;" edge="1" parent="1" source="v-jlXUlKIIyLzTd_wpWI-29" target="HzuES46PHGPT3fyTjoQ7-151">
          <mxGeometry relative="1" as="geometry" />
        </mxCell>
        <mxCell id="v-jlXUlKIIyLzTd_wpWI-29" value="Name" style="ellipse;whiteSpace=wrap;html=1;align=center;" vertex="1" parent="1">
          <mxGeometry x="1470" y="620" width="100" height="40" as="geometry" />
        </mxCell>
      </root>
    </mxGraphModel>
  </diagram>
</mxfile>
